<?xml version="1.0"?>
<svg xmlns="http://www.w3.org/2000/svg" xmlns:xlink="http://www.w3.org/1999/xlink" xmlns:svgjs="http://svgjs.com/svgjs" version="1.1" width="512" height="512" x="0" y="0" viewBox="0 0 511 511.99975" style="enable-background:new 0 0 512 512" xml:space="preserve" class=""><g><path xmlns="http://www.w3.org/2000/svg" d="m472.457031 194.441406 24.664063-24.664062c20.503906-20.5 20.503906-53.859375 0-74.363282l-80.039063-80.039062c-20.5-20.5-53.859375-20.5-74.359375 0l-24.664062 24.664062zm0 0" fill="#1f1e24" data-original="#000000" style="" class=""/><path xmlns="http://www.w3.org/2000/svg" d="m39.253906 318.84375 257.585938-257.585938 154.398437 154.398438-257.585937 257.585938zm0 0" fill="#1f1e24" data-original="#000000" style="" class=""/><path xmlns="http://www.w3.org/2000/svg" d="m23.015625 345.03125-21.679687 112.257812c-2.898438 15.011719 1.824218 30.425782 12.636718 41.238282 8.714844 8.714844 20.417969 13.472656 32.496094 13.472656 2.902344 0 5.828125-.273438 8.742188-.839844l112.253906-21.675781zm0 0" fill="#1f1e24" data-original="#000000" style="" class=""/></g></svg>
